<?xml version="1.0" standalone="no"?>
<!DOCTYPE svg PUBLIC "-//W3C//DTD SVG 20010904//EN"
 "http://www.w3.org/TR/2001/REC-SVG-20010904/DTD/svg10.dtd">
<svg version="1.0" xmlns="http://www.w3.org/2000/svg"
 width="1921.000000pt" height="637.000000pt" viewBox="0 0 1921.000000 637.000000"
 preserveAspectRatio="xMidYMid meet">
<metadata>
Created by potrace 1.15, written by Peter Selinger 2001-2017
</metadata>
<g transform="translate(0.000000,637.000000) scale(0.100000,-0.100000)"
fill="#000000" stroke="none">
<path d="M15900 6229 c-443 -39 -898 -186 -1279 -414 -245 -147 -431 -295
-636 -506 -480 -496 -773 -1136 -835 -1824 -21 -231 -11 -527 26 -760 138
-875 672 -1657 1445 -2120 785 -469 1763 -554 2623 -228 881 334 1566 1072
1831 1972 392 1334 -161 2748 -1355 3464 -351 210 -738 344 -1160 402 -139 19
-515 27 -660 14z m1051 -414 c25 -16 49 -57 49 -84 0 -13 -9 -39 -21 -57 -54
-88 -189 -47 -189 57 0 82 90 129 161 84z m-1439 -14 c27 -24 33 -36 33 -70 0
-33 -7 -47 -32 -72 -67 -68 -176 -23 -176 72 0 90 106 132 175 70z m988 -411
c72 -11 135 -22 140 -25 6 -4 10 -225 10 -596 l0 -589 -485 0 -485 0 0 590 0
589 38 10 c203 52 515 60 782 21z m-1300 -705 l0 -505 -505 0 c-278 0 -505 3
-505 7 0 14 104 189 162 275 128 187 320 384 514 529 62 46 313 199 326 199 4
0 8 -227 8 -505z m2008 471 c87 -44 258 -157 347 -230 221 -181 420 -419 550
-659 l47 -87 -511 0 -511 0 0 505 c0 278 2 505 5 505 3 0 36 -15 73 -34z
m-3499 -1130 c57 -30 68 -107 22 -158 -25 -28 -36 -33 -76 -33 -40 0 -51 5
-76 33 -80 90 21 214 130 158z m1801 -15 c39 -39 46 -71 24 -116 -23 -50 -73
-72 -125 -56 -75 23 -97 115 -40 172 41 41 101 41 141 0z m1449 3 c58 -48 47
-135 -20 -170 -69 -35 -149 18 -149 98 0 87 100 130 169 72z m1780 0 c58 -48
47 -135 -20 -170 -69 -35 -149 18 -149 98 0 87 100 130 169 72z m-3539 -804
l0 -480 -594 0 -593 0 -12 58 c-20 106 -41 316 -41 422 0 106 21 316 41 423
l12 57 593 0 594 0 0 -480z m1450 0 l0 -480 -485 0 -485 0 0 480 0 480 485 0
485 0 0 -480z m1682 440 c55 -255 55 -625 0 -880 l-8 -35 -597 -3 -597 -2 0
480 0 480 597 -2 597 -3 8 -35z m-4606 -1094 c26 -26 34 -42 34 -71 0 -52 -53
-105 -105 -105 -52 0 -105 53 -105 105 0 52 53 105 105 105 29 0 45 -8 71 -34z
m1770 15 c46 -28 61 -80 37 -128 -10 -21 -29 -44 -43 -51 -32 -17 -98 -9 -122
15 -46 47 -39 131 15 163 40 25 73 25 113 1z m1438 9 c68 -26 83 -122 26 -172
-67 -61 -170 -15 -170 77 0 78 70 124 144 95z m1815 -24 c20 -21 26 -36 26
-72 0 -39 -5 -50 -33 -75 -37 -33 -77 -37 -122 -14 -37 19 -50 43 -50 92 0 39
20 72 55 92 31 18 94 6 124 -23z m-3549 -822 c0 -471 -1 -506 -17 -500 -41 16
-258 151 -329 205 -256 192 -456 421 -613 697 -28 49 -51 93 -51 97 0 4 227 7
505 7 l505 0 0 -506z m1450 -83 c0 -373 -4 -592 -10 -596 -5 -3 -71 -15 -147
-27 -238 -35 -590 -25 -775 23 l-38 10 0 589 0 590 485 0 485 0 0 -589z m1455
502 c-130 -239 -342 -493 -555 -664 -118 -94 -382 -259 -415 -259 -3 0 -5 227
-5 505 l0 505 511 0 511 0 -47 -87z m-2620 -1369 c41 -19 69 -73 60 -114 -10
-43 -58 -80 -106 -80 -108 0 -143 146 -45 194 39 20 50 20 91 0z m1450 2 c103
-43 70 -196 -42 -196 -115 0 -144 150 -39 196 39 17 40 17 81 0z"/>
<path d="M15900 3210 l0 -270 270 0 270 0 0 270 0 270 -270 0 -270 0 0 -270z"/>
<path d="M6127 5304 c-306 -47 -556 -167 -753 -359 -175 -172 -280 -366 -325
-605 -16 -86 -16 -286 0 -380 73 -414 361 -743 771 -881 192 -64 260 -73 540
-74 230 0 266 2 364 23 136 30 280 79 419 144 l107 51 0 244 c0 133 -4 243 -9
243 -5 0 -53 -21 -107 -46 -171 -80 -305 -131 -419 -160 -101 -27 -125 -29
-285 -29 -136 0 -189 4 -240 18 -278 77 -450 220 -536 447 -26 70 -28 85 -29
220 0 132 3 152 26 217 127 349 533 534 996 454 155 -26 273 -65 441 -146
l132 -64 0 253 0 252 -86 43 c-146 72 -305 117 -494 140 -116 15 -406 12 -513
-5z"/>
<path d="M10 4160 l0 -1130 280 0 280 0 0 720 c0 396 3 720 8 719 4 0 25 -22
47 -48 22 -26 301 -349 619 -719 l580 -672 238 0 238 0 0 1130 0 1130 -280 0
-280 0 -2 -689 -3 -689 -289 331 c-160 183 -430 493 -600 689 l-311 357 -262
0 -263 1 0 -1130z"/>
<path d="M3411 5268 c-5 -13 -52 -129 -104 -258 -92 -228 -208 -516 -512
-1270 -81 -201 -176 -437 -212 -525 -36 -88 -67 -166 -70 -172 -4 -10 59 -13
295 -13 l300 0 83 220 83 220 509 -2 510 -3 59 -140 c32 -77 72 -175 89 -217
l32 -78 303 0 c167 0 304 2 304 4 0 3 -225 510 -499 1128 l-500 1123 -331 3
-330 2 -9 -22z m383 -604 c15 -37 94 -229 177 -426 82 -197 149 -361 149 -364
0 -2 -155 -4 -345 -4 -190 0 -345 3 -345 6 0 19 325 862 331 859 4 -3 19 -35
33 -71z"/>
<path d="M7630 4160 l0 -1130 285 0 285 0 0 526 0 525 123 -144 c67 -80 266
-316 442 -525 l320 -381 607 0 606 -1 30 78 c16 42 53 141 82 220 l53 142 510
-2 510 -3 52 -125 c29 -69 69 -167 90 -217 l38 -93 304 0 c240 0 304 3 300 13
-2 6 -150 338 -327 737 -178 399 -356 799 -396 890 -39 91 -117 266 -172 390
l-101 225 -331 0 -332 0 -65 -160 c-59 -146 -127 -316 -555 -1375 -76 -190
-165 -409 -196 -487 -31 -79 -60 -143 -63 -143 -3 0 -214 250 -468 555 l-461
555 365 525 c201 289 365 528 365 530 0 3 -139 5 -309 5 l-308 0 -144 -207
c-80 -115 -239 -344 -354 -509 l-210 -302 -3 509 -2 509 -285 0 -285 0 0
-1130z m3504 141 c97 -233 176 -425 176 -427 0 -2 -155 -4 -345 -4 -190 0
-345 2 -345 5 0 21 325 864 331 858 4 -4 86 -199 183 -432z"/>
<path d="M2255 2405 c-286 -54 -499 -248 -561 -510 -23 -100 -15 -246 19 -343
74 -211 256 -371 492 -433 105 -28 298 -31 402 -6 294 69 499 278 543 552 33
199 -52 425 -214 571 -162 147 -437 215 -681 169z m349 -293 c85 -40 139 -91
176 -166 77 -155 50 -357 -62 -469 -157 -156 -465 -149 -612 14 -68 76 -90
142 -91 269 0 97 2 110 31 170 74 154 202 224 396 216 83 -3 108 -9 162 -34z"/>
<path d="M0 1755 l0 -645 160 0 160 0 0 303 1 302 27 -30 c15 -17 130 -153
256 -303 l230 -272 198 0 c109 0 198 2 198 5 0 3 -120 150 -267 327 -148 178
-274 331 -281 340 -11 14 13 54 192 312 113 163 206 298 206 301 0 3 -79 4
-176 3 l-177 -3 -201 -289 -201 -289 -3 291 -2 292 -160 0 -160 0 0 -645z"/>
<path d="M3980 1755 l0 -645 160 0 160 0 2 400 3 400 170 -200 c136 -160 175
-199 195 -200 20 0 58 38 198 201 l172 200 0 -400 0 -401 165 0 165 0 0 645 0
645 -143 0 -144 0 -203 -235 c-112 -130 -207 -234 -211 -233 -4 2 -98 108
-209 236 l-201 232 -139 0 -140 0 0 -645z"/>
<path d="M6340 1755 l0 -645 160 0 160 0 0 394 c0 217 3 397 8 399 4 3 84 -85
177 -194 138 -161 175 -199 195 -198 20 0 59 40 195 199 l170 199 3 -399 2
-400 160 0 160 0 0 645 0 645 -139 0 -140 0 -201 -232 c-111 -128 -205 -234
-209 -236 -4 -1 -99 104 -211 233 l-203 235 -144 0 -143 0 0 -645z"/>
<path d="M8702 1963 l3 -438 26 -71 c65 -178 185 -282 386 -335 107 -29 323
-31 438 -5 176 40 301 126 369 256 62 117 66 154 66 618 l0 412 -159 0 -160 0
-3 -407 -3 -408 -28 -57 c-52 -107 -148 -161 -286 -162 -145 -1 -242 50 -299
158 l-27 51 -3 413 -3 412 -160 0 -160 0 3 -437z"/>
<path d="M10960 1755 l0 -645 160 0 160 0 0 410 c0 226 3 410 8 409 4 0 165
-184 357 -409 l350 -409 138 0 137 -1 0 645 0 645 -160 0 -160 0 -2 -392 -3
-391 -340 391 -340 391 -152 0 -153 1 0 -645z"/>
</g>
</svg>
