<svg id="svg" version="1.1" width="400" height="413.6363636363636" viewBox="0 0 400 413.6363636363636" xmlns="http://www.w3.org/2000/svg" xmlns:xlink="http://www.w3.org/1999/xlink" ><g id="svgg"><path id="path0" d="M0.000 206.800 L 0.000 413.600 200.000 413.600 L 400.000 413.600 400.000 206.800 L 400.000 0.000 200.000 0.000 L 0.000 0.000 0.000 206.800 M217.600 8.415 C 219.470 8.651,221.900 8.921,223.000 9.016 C 224.100 9.111,226.170 9.367,227.600 9.585 C 235.183 10.739,236.764 11.026,237.036 11.300 C 237.199 11.465,237.936 11.600,238.672 11.600 C 239.408 11.600,240.323 11.772,240.705 11.982 C 241.087 12.192,242.390 12.542,243.600 12.761 C 246.905 13.358,248.118 13.629,249.000 13.968 C 251.075 14.765,253.984 15.600,254.687 15.600 C 255.116 15.600,255.602 15.735,255.767 15.900 C 255.932 16.065,256.187 16.215,256.333 16.233 C 257.083 16.324,259.050 16.947,259.400 17.203 C 259.620 17.364,260.520 17.625,261.400 17.784 C 262.280 17.942,263.180 18.211,263.400 18.381 C 263.620 18.551,264.340 18.810,265.000 18.957 C 265.660 19.105,266.920 19.561,267.800 19.971 C 270.862 21.398,272.323 22.000,272.728 22.000 C 272.952 22.000,273.645 22.259,274.268 22.576 C 274.890 22.892,276.120 23.448,277.000 23.810 C 277.880 24.173,279.820 25.084,281.310 25.835 C 282.801 26.586,284.271 27.200,284.577 27.200 C 284.883 27.200,285.193 27.347,285.267 27.527 C 285.340 27.707,286.613 28.441,288.096 29.158 C 289.578 29.876,290.885 30.615,291.000 30.800 C 291.115 30.986,291.747 31.257,292.405 31.401 C 293.062 31.545,293.600 31.829,293.600 32.032 C 293.600 32.234,293.741 32.400,293.913 32.400 C 294.257 32.400,298.782 34.838,300.446 35.920 C 301.021 36.294,302.326 37.112,303.346 37.738 C 304.366 38.364,305.200 39.039,305.200 39.238 C 305.200 39.437,305.377 39.600,305.594 39.600 C 306.240 39.600,310.158 42.108,310.723 42.883 C 311.010 43.277,311.507 43.600,311.827 43.600 C 312.146 43.600,312.716 43.960,313.093 44.400 C 313.470 44.840,313.937 45.200,314.131 45.200 C 314.326 45.200,315.050 45.653,315.742 46.208 C 316.434 46.762,317.450 47.567,318.000 47.997 C 318.550 48.427,319.831 49.459,320.848 50.289 C 321.864 51.120,323.124 52.144,323.648 52.564 C 331.677 59.007,342.579 69.874,349.544 78.377 C 350.345 79.354,351.585 80.786,352.300 81.560 C 353.015 82.334,353.600 83.100,353.600 83.263 C 353.600 83.426,354.005 84.014,354.500 84.570 C 354.995 85.126,355.850 86.229,356.400 87.021 C 356.950 87.813,357.805 88.924,358.300 89.489 C 358.795 90.054,359.200 90.752,359.200 91.039 C 359.200 91.325,359.426 91.704,359.701 91.880 C 359.977 92.056,360.741 93.010,361.400 94.000 C 362.059 94.990,362.701 95.890,362.828 96.000 C 362.955 96.110,363.182 96.470,363.334 96.800 C 363.485 97.130,363.969 97.940,364.409 98.600 C 364.849 99.260,365.318 100.115,365.451 100.500 C 365.584 100.885,365.811 101.200,365.956 101.200 C 366.100 101.200,366.572 101.875,367.005 102.700 C 367.438 103.525,367.898 104.290,368.028 104.400 C 368.157 104.510,368.544 105.140,368.888 105.800 C 369.231 106.460,370.145 108.170,370.917 109.600 C 374.309 115.876,379.200 126.031,379.200 126.795 C 379.200 127.060,379.571 127.798,380.025 128.434 C 380.478 129.071,380.952 130.224,381.077 130.996 C 381.202 131.768,381.445 132.400,381.617 132.400 C 381.789 132.400,382.051 133.120,382.200 134.000 C 382.349 134.880,382.634 135.600,382.835 135.600 C 383.036 135.600,383.200 136.050,383.200 136.600 C 383.200 137.150,383.360 137.600,383.555 137.600 C 383.751 137.600,384.037 138.275,384.191 139.100 C 384.345 139.925,384.612 140.780,384.784 141.000 C 384.955 141.220,385.221 142.097,385.375 142.949 C 385.529 143.801,385.822 144.836,386.027 145.249 C 386.232 145.662,386.580 146.358,386.800 146.795 C 387.020 147.232,387.200 147.948,387.200 148.386 C 387.200 148.825,387.636 150.492,388.168 152.092 C 388.701 153.691,389.263 155.900,389.419 157.000 C 389.574 158.100,389.836 159.180,390.000 159.400 C 390.384 159.912,390.837 162.227,391.449 166.800 C 391.582 167.790,391.827 168.780,391.995 169.000 C 392.294 169.393,392.826 172.233,393.045 174.600 C 393.106 175.260,393.338 177.420,393.560 179.400 C 393.782 181.380,394.082 184.080,394.228 185.400 C 394.556 188.376,394.589 220.986,394.267 224.000 C 394.137 225.210,393.835 227.820,393.594 229.800 C 393.353 231.780,393.098 234.030,393.027 234.800 C 392.957 235.570,392.685 237.100,392.423 238.200 C 391.557 241.843,391.155 244.184,391.176 245.478 C 391.187 246.180,391.017 246.866,390.798 247.001 C 390.579 247.137,390.400 247.766,390.400 248.400 C 390.400 249.034,390.245 249.648,390.056 249.765 C 389.867 249.882,389.595 250.979,389.451 252.202 C 389.307 253.426,389.029 254.736,388.832 255.114 C 388.636 255.491,388.171 256.970,387.800 258.400 C 387.429 259.830,386.962 261.313,386.762 261.695 C 386.563 262.077,386.400 262.741,386.400 263.171 C 386.400 263.601,386.230 264.058,386.023 264.186 C 385.816 264.314,385.525 265.227,385.377 266.214 C 385.229 267.202,384.964 268.099,384.789 268.207 C 384.613 268.315,384.348 269.123,384.200 270.002 C 384.051 270.881,383.766 271.600,383.565 271.600 C 383.364 271.600,383.200 271.949,383.200 272.376 C 383.200 272.803,383.017 273.266,382.793 273.404 C 382.570 273.542,382.486 273.816,382.607 274.011 C 382.728 274.207,382.662 274.690,382.460 275.084 C 382.258 275.478,381.920 276.250,381.708 276.800 C 381.497 277.350,380.843 278.790,380.255 280.000 C 379.668 281.210,379.190 282.353,379.194 282.539 C 379.211 283.458,371.881 298.099,369.105 302.690 C 368.277 304.060,367.600 305.365,367.600 305.590 C 367.600 305.816,367.432 306.000,367.227 306.000 C 367.022 306.000,366.728 306.405,366.573 306.900 C 366.419 307.395,366.181 307.890,366.046 308.000 C 365.651 308.321,364.797 309.740,364.542 310.500 C 364.412 310.885,364.143 311.200,363.943 311.200 C 363.744 311.200,363.397 311.605,363.173 312.100 C 362.523 313.536,361.889 314.526,360.500 316.277 C 359.785 317.178,359.200 318.043,359.200 318.200 C 359.200 318.356,358.747 319.050,358.194 319.742 C 357.641 320.434,357.056 321.182,356.894 321.404 C 356.732 321.626,355.925 322.647,355.100 323.671 C 354.275 324.696,353.600 325.700,353.600 325.903 C 353.600 326.106,352.970 326.845,352.200 327.545 C 351.430 328.246,350.800 328.961,350.800 329.134 C 350.800 329.307,350.395 329.878,349.900 330.401 C 349.405 330.925,348.627 331.850,348.172 332.457 C 346.496 334.691,334.226 347.600,333.779 347.600 C 333.666 347.600,332.275 348.841,330.687 350.359 C 328.296 352.643,325.022 355.446,318.635 360.677 C 318.214 361.022,317.285 361.649,316.570 362.070 C 315.856 362.492,315.171 363.099,315.048 363.418 C 314.926 363.738,314.577 364.000,314.275 364.000 C 313.972 364.000,313.398 364.360,313.000 364.800 C 312.602 365.240,312.109 365.600,311.905 365.600 C 311.701 365.600,310.784 366.185,309.867 366.900 C 307.908 368.428,306.930 369.059,305.700 369.591 C 305.205 369.805,304.800 370.144,304.800 370.343 C 304.800 370.543,304.485 370.812,304.100 370.942 C 303.299 371.211,302.085 371.970,301.288 372.700 C 300.988 372.975,300.548 373.200,300.309 373.200 C 300.071 373.200,299.319 373.619,298.638 374.132 C 297.957 374.644,296.815 375.318,296.100 375.629 C 295.385 375.941,294.800 376.331,294.800 376.498 C 294.800 376.664,294.530 376.800,294.200 376.800 C 293.870 376.800,293.600 376.966,293.600 377.168 C 293.600 377.371,293.062 377.655,292.405 377.799 C 291.747 377.943,291.119 378.208,291.008 378.387 C 290.898 378.566,289.230 379.466,287.304 380.388 C 285.377 381.310,283.530 382.230,283.200 382.433 C 282.870 382.636,282.234 382.962,281.787 383.158 C 281.340 383.354,280.170 383.879,279.187 384.326 C 274.761 386.337,271.616 387.600,271.033 387.600 C 270.685 387.600,270.400 387.780,270.400 388.000 C 270.400 388.220,270.051 388.400,269.624 388.400 C 269.197 388.400,268.749 388.560,268.628 388.755 C 268.507 388.950,267.784 389.226,267.021 389.370 C 266.258 389.513,265.131 389.892,264.517 390.212 C 263.903 390.533,263.096 390.796,262.724 390.798 C 262.352 390.799,261.936 390.980,261.800 391.200 C 261.664 391.420,261.201 391.600,260.771 391.600 C 260.341 391.600,259.677 391.769,259.295 391.977 C 258.913 392.184,257.520 392.657,256.200 393.029 C 254.880 393.401,253.029 393.951,252.086 394.252 C 251.143 394.554,250.029 394.800,249.610 394.800 C 249.190 394.800,248.748 394.960,248.627 395.156 C 248.411 395.506,246.147 395.996,244.618 396.023 C 244.189 396.031,243.649 396.186,243.418 396.368 C 242.979 396.716,242.222 396.884,237.000 397.794 C 235.240 398.101,232.900 398.565,231.800 398.825 C 230.700 399.086,229.080 399.359,228.200 399.434 C 227.320 399.508,225.340 399.744,223.800 399.957 C 222.260 400.171,219.290 400.545,217.200 400.789 C 212.423 401.345,183.821 401.341,179.200 400.783 C 174.119 400.169,169.176 399.596,167.600 399.439 C 166.830 399.362,165.300 399.086,164.200 398.825 C 163.100 398.565,160.760 398.110,159.000 397.814 C 155.984 397.307,150.059 395.984,147.400 395.223 C 146.740 395.034,145.120 394.574,143.800 394.200 C 142.480 393.826,141.040 393.383,140.600 393.215 C 139.304 392.720,135.892 391.687,134.656 391.415 C 134.027 391.276,132.767 390.828,131.856 390.419 C 130.945 390.011,129.300 389.370,128.200 388.996 C 127.100 388.622,125.840 388.164,125.400 387.979 C 124.960 387.794,123.610 387.255,122.400 386.780 C 117.765 384.963,102.087 377.287,101.200 376.400 C 100.990 376.190,99.557 375.380,97.200 374.138 C 96.430 373.732,95.710 373.301,95.600 373.181 C 95.490 373.060,94.500 372.446,93.400 371.815 C 92.300 371.185,91.310 370.564,91.200 370.435 C 90.872 370.050,87.196 367.600,86.946 367.600 C 86.819 367.600,86.150 367.147,85.458 366.594 C 83.691 365.180,83.628 365.134,81.400 363.592 C 80.300 362.830,78.825 361.755,78.123 361.203 C 77.420 360.652,76.340 359.809,75.723 359.331 C 73.893 357.916,69.317 354.016,67.651 352.453 C 66.799 351.654,65.542 350.577,64.857 350.059 C 63.070 348.710,54.461 340.142,52.664 337.925 C 51.828 336.893,50.392 335.267,49.472 334.312 C 47.820 332.595,46.088 330.536,44.330 328.200 C 43.834 327.540,43.331 326.910,43.214 326.800 C 42.851 326.460,40.209 323.056,39.490 322.000 C 39.115 321.450,38.006 319.920,37.025 318.600 C 36.044 317.280,34.753 315.390,34.155 314.400 C 33.558 313.410,32.951 312.510,32.805 312.400 C 32.660 312.290,32.421 311.930,32.273 311.600 C 31.971 310.924,31.379 309.957,30.190 308.200 C 29.744 307.540,29.028 306.325,28.599 305.500 C 28.169 304.675,27.723 304.000,27.607 304.000 C 27.490 304.000,27.142 303.415,26.832 302.700 C 26.522 301.985,25.964 301.004,25.592 300.519 C 24.623 299.258,18.685 287.138,16.420 281.800 C 15.954 280.700,15.398 279.487,15.186 279.105 C 14.974 278.723,14.794 278.183,14.786 277.905 C 14.779 277.627,14.425 276.680,14.000 275.800 C 13.575 274.920,13.221 273.896,13.214 273.524 C 13.206 273.152,13.020 272.736,12.800 272.600 C 12.580 272.464,12.400 272.085,12.400 271.757 C 12.400 271.429,12.056 270.448,11.635 269.577 C 11.214 268.706,10.748 267.275,10.600 266.398 C 10.452 265.522,10.176 264.709,9.988 264.593 C 9.800 264.476,9.525 263.573,9.377 262.586 C 9.229 261.598,8.948 260.692,8.754 260.571 C 8.559 260.451,8.400 259.834,8.400 259.200 C 8.400 258.566,8.230 257.942,8.023 257.814 C 7.816 257.686,7.532 256.731,7.393 255.691 C 7.254 254.651,7.033 253.530,6.901 253.200 C 6.650 252.569,5.852 249.439,5.168 246.400 C 4.945 245.410,4.585 243.340,4.369 241.800 C 4.152 240.260,3.800 238.687,3.587 238.305 C 3.374 237.923,3.200 236.719,3.200 235.629 C 3.200 234.539,3.048 233.553,2.862 233.438 C 2.676 233.324,2.490 232.278,2.448 231.115 C 2.407 229.952,2.194 227.920,1.975 226.600 C 0.481 217.574,0.279 192.515,1.641 185.200 C 1.866 183.990,2.225 181.290,2.438 179.200 C 3.092 172.795,3.229 171.829,3.601 171.000 C 3.799 170.560,4.141 168.940,4.361 167.400 C 4.582 165.860,4.944 163.790,5.166 162.800 C 5.388 161.810,5.778 160.010,6.033 158.800 C 6.288 157.590,6.642 156.240,6.819 155.800 C 6.995 155.360,7.247 154.460,7.377 153.800 C 7.759 151.867,7.829 151.638,8.122 151.345 C 8.275 151.192,8.400 150.567,8.400 149.957 C 8.400 149.347,8.559 148.749,8.754 148.629 C 8.948 148.508,9.229 147.602,9.377 146.614 C 9.525 145.627,9.800 144.724,9.988 144.607 C 10.176 144.491,10.458 143.639,10.615 142.713 C 10.771 141.788,11.085 140.664,11.312 140.215 C 12.142 138.576,12.304 138.148,12.597 136.814 C 12.761 136.066,13.234 134.851,13.648 134.115 C 14.062 133.378,14.406 132.556,14.414 132.288 C 14.421 132.020,14.775 131.080,15.200 130.200 C 15.625 129.320,15.979 128.285,15.986 127.900 C 15.994 127.515,16.180 127.200,16.400 127.200 C 16.620 127.200,16.800 126.928,16.800 126.595 C 16.800 126.262,16.971 125.677,17.181 125.295 C 17.390 124.913,17.876 123.880,18.260 123.000 C 18.644 122.120,19.118 121.290,19.313 121.155 C 19.509 121.021,19.661 120.799,19.653 120.664 C 19.637 120.404,20.938 117.239,21.693 115.700 C 21.936 115.205,22.285 114.800,22.468 114.800 C 22.650 114.800,22.800 114.602,22.800 114.360 C 22.800 113.705,24.096 111.044,24.579 110.706 C 24.811 110.544,24.859 110.409,24.686 110.406 C 24.513 110.403,24.828 109.728,25.386 108.907 C 25.944 108.086,26.400 107.186,26.400 106.907 C 26.400 106.628,26.580 106.400,26.800 106.400 C 27.020 106.400,27.200 106.211,27.200 105.981 C 27.200 105.750,27.920 104.477,28.800 103.152 C 29.680 101.827,30.400 100.576,30.400 100.372 C 30.400 100.167,30.559 100.000,30.753 100.000 C 30.948 100.000,31.221 99.685,31.360 99.300 C 31.684 98.403,32.229 97.510,34.200 94.643 C 35.080 93.364,35.996 91.977,36.236 91.561 C 36.475 91.146,36.970 90.475,37.336 90.071 C 37.701 89.667,38.000 89.133,38.000 88.883 C 38.000 88.633,38.360 88.235,38.800 88.000 C 39.240 87.765,39.600 87.378,39.600 87.141 C 39.600 86.685,40.827 85.078,43.300 82.293 C 44.125 81.364,44.800 80.373,44.800 80.090 C 44.800 79.807,45.068 79.472,45.396 79.346 C 45.723 79.221,46.514 78.407,47.153 77.539 C 49.693 74.084,60.779 62.448,64.400 59.435 C 65.170 58.794,66.707 57.444,67.817 56.435 C 69.661 54.756,71.344 53.328,74.600 50.675 C 75.260 50.137,77.870 48.154,80.400 46.267 C 82.930 44.380,85.352 42.558,85.781 42.218 C 86.211 41.878,86.723 41.600,86.919 41.600 C 87.115 41.600,88.344 40.788,89.649 39.795 C 90.955 38.802,92.604 37.677,93.313 37.295 C 94.023 36.913,95.143 36.240,95.803 35.800 C 97.663 34.560,98.404 34.133,101.200 32.685 C 102.630 31.945,104.945 30.676,106.345 29.866 C 107.745 29.056,109.320 28.285,109.845 28.153 C 110.370 28.021,110.800 27.753,110.800 27.557 C 110.800 27.360,111.022 27.200,111.294 27.200 C 111.566 27.200,112.691 26.773,113.794 26.252 C 117.065 24.706,121.342 22.748,122.200 22.403 C 122.640 22.226,123.657 21.793,124.460 21.441 C 125.264 21.088,126.121 20.800,126.366 20.800 C 126.611 20.800,127.123 20.633,127.505 20.429 C 128.507 19.895,129.753 19.463,130.092 19.534 C 130.253 19.567,130.985 19.258,131.719 18.845 C 132.454 18.433,133.672 17.974,134.427 17.825 C 135.741 17.565,137.009 17.108,138.483 16.361 C 138.858 16.171,139.938 15.897,140.883 15.753 C 141.827 15.609,142.780 15.356,143.000 15.191 C 143.220 15.026,144.164 14.764,145.098 14.610 C 146.032 14.456,146.897 14.166,147.022 13.965 C 147.146 13.764,147.856 13.600,148.600 13.600 C 149.344 13.600,150.053 13.438,150.176 13.239 C 150.298 13.041,151.479 12.753,152.800 12.600 C 154.121 12.447,155.302 12.159,155.424 11.961 C 155.547 11.762,156.346 11.600,157.200 11.600 C 158.054 11.600,158.864 11.420,159.000 11.200 C 159.136 10.980,159.912 10.796,160.724 10.790 C 161.536 10.785,162.920 10.597,163.800 10.372 C 165.421 9.958,172.076 9.075,178.539 8.416 C 180.486 8.217,182.136 7.998,182.206 7.927 C 182.536 7.597,214.610 8.040,217.600 8.415 M147.436 35.386 C 145.627 36.497,144.433 38.691,144.414 40.940 C 144.354 47.732,153.481 49.766,156.524 43.639 C 159.289 38.072,152.741 32.126,147.436 35.386 M242.597 34.939 C 240.888 35.919,240.168 36.662,239.300 38.338 C 238.374 40.126,238.117 42.178,238.769 42.581 C 238.972 42.706,239.254 43.337,239.396 43.982 C 240.143 47.382,247.231 48.296,249.635 45.303 C 253.845 40.062,248.188 31.732,242.597 34.939 M188.800 62.070 C 187.810 62.219,185.526 62.354,183.724 62.370 C 181.922 62.387,180.337 62.579,180.201 62.798 C 180.066 63.017,179.380 63.180,178.678 63.161 C 176.610 63.105,172.395 63.684,172.165 64.057 C 172.048 64.245,171.198 64.406,170.276 64.413 C 166.908 64.438,167.200 60.748,167.200 103.347 L 167.200 141.205 197.900 141.102 L 228.600 141.000 228.702 103.434 C 228.817 61.111,229.065 64.400,225.762 64.400 C 224.819 64.400,223.951 64.245,223.834 64.056 C 223.717 63.866,222.402 63.589,220.911 63.439 C 219.420 63.289,217.660 63.082,217.000 62.979 C 211.375 62.103,192.612 61.498,188.800 62.070 M132.800 77.400 C 132.526 77.730,132.054 78.000,131.751 78.000 C 131.448 78.000,131.200 78.166,131.200 78.368 C 131.200 78.571,130.660 78.855,130.000 79.000 C 129.340 79.145,128.800 79.385,128.800 79.534 C 128.800 79.683,128.215 80.059,127.500 80.371 C 126.785 80.682,125.643 81.356,124.962 81.868 C 124.281 82.381,123.544 82.800,123.323 82.800 C 123.103 82.800,122.548 83.115,122.091 83.500 C 121.633 83.885,120.670 84.560,119.949 85.000 C 117.491 86.501,115.114 88.128,114.124 88.987 C 113.862 89.214,112.984 89.850,112.173 90.400 C 111.362 90.950,110.263 91.805,109.731 92.300 C 109.199 92.795,108.684 93.200,108.586 93.200 C 108.351 93.200,106.943 94.361,105.678 95.600 C 105.116 96.150,104.104 97.012,103.428 97.516 C 101.848 98.694,91.200 109.218,91.200 109.601 C 91.200 109.761,90.345 110.795,89.300 111.900 C 88.255 113.005,86.770 114.758,86.000 115.796 C 85.230 116.833,84.331 117.965,84.003 118.310 C 83.674 118.655,83.224 119.250,83.003 119.631 C 82.781 120.013,81.520 121.879,80.200 123.778 C 77.033 128.335,76.437 129.265,76.149 130.100 C 76.016 130.485,75.748 130.800,75.553 130.800 C 75.359 130.800,75.200 131.042,75.200 131.338 C 75.200 131.634,74.486 132.981,73.613 134.331 C 71.983 136.853,70.400 140.030,70.400 140.778 C 70.400 141.070,80.224 141.200,102.400 141.200 L 134.400 141.200 134.400 109.000 C 134.400 75.307,134.408 75.463,132.800 77.400 M261.200 109.000 L 261.200 141.200 293.333 141.200 C 311.007 141.200,325.581 141.085,325.722 140.945 C 325.862 140.805,325.641 140.220,325.232 139.645 C 324.823 139.070,324.480 138.510,324.470 138.400 C 324.432 137.980,323.848 136.591,323.629 136.400 C 323.503 136.290,323.109 135.660,322.752 135.000 C 320.501 130.829,319.451 128.975,319.239 128.800 C 319.106 128.690,318.458 127.790,317.799 126.800 C 317.139 125.810,316.465 124.940,316.300 124.867 C 316.135 124.793,316.000 124.575,316.000 124.381 C 316.000 124.187,315.454 123.257,314.787 122.314 C 314.120 121.371,313.277 120.150,312.914 119.600 C 312.551 119.050,311.925 118.240,311.522 117.800 C 311.120 117.360,309.938 115.920,308.896 114.600 C 305.612 110.440,300.028 104.299,297.077 101.600 C 292.641 97.543,289.406 94.725,287.436 93.200 C 286.441 92.430,285.184 91.440,284.644 91.000 C 284.103 90.560,283.005 89.750,282.203 89.200 C 281.401 88.650,280.236 87.795,279.615 87.300 C 278.993 86.805,278.300 86.400,278.076 86.400 C 277.851 86.400,277.607 86.261,277.533 86.090 C 277.372 85.716,270.593 81.470,267.800 79.994 C 266.700 79.413,264.955 78.456,263.923 77.869 C 262.891 77.281,261.856 76.800,261.623 76.800 C 261.329 76.800,261.200 86.632,261.200 109.000 M32.375 151.340 C 30.602 152.265,29.249 153.668,28.989 154.850 C 28.851 155.478,28.572 156.094,28.369 156.219 C 27.235 156.920,29.341 161.446,31.448 162.835 C 33.652 164.288,36.882 163.910,39.009 161.949 C 44.042 157.310,38.357 148.218,32.375 151.340 M147.500 151.888 C 146.455 152.449,145.600 153.139,145.600 153.421 C 145.600 153.703,145.411 153.996,145.181 154.073 C 144.263 154.379,144.254 158.547,145.168 160.338 C 146.891 163.716,151.529 164.790,154.496 162.500 C 160.867 157.583,154.598 148.076,147.500 151.888 M242.600 151.428 C 240.905 152.308,239.200 154.024,239.200 154.851 C 239.200 155.237,239.020 155.664,238.800 155.800 C 238.297 156.111,238.272 158.674,238.769 158.981 C 238.972 159.106,239.248 159.707,239.381 160.315 C 239.751 162.000,242.660 163.600,245.353 163.600 C 250.845 163.600,253.618 154.871,248.923 152.359 C 248.416 152.087,248.000 151.721,248.000 151.545 C 248.000 151.369,247.748 151.322,247.440 151.440 C 247.133 151.558,246.762 151.462,246.617 151.227 C 246.229 150.599,243.980 150.712,242.600 151.428 M358.600 151.084 C 355.941 151.722,352.628 157.905,354.369 158.981 C 354.572 159.106,354.851 159.724,354.990 160.353 C 355.155 161.106,355.711 161.749,356.620 162.239 C 357.379 162.648,358.000 163.121,358.000 163.291 C 358.000 164.186,362.703 163.575,364.085 162.500 C 369.843 158.019,365.694 149.385,358.600 151.084 M58.423 174.172 C 58.162 174.487,57.936 175.342,57.921 176.072 C 57.907 176.803,57.757 177.580,57.588 177.800 C 57.281 178.201,56.807 181.653,56.780 183.687 C 56.772 184.285,56.593 184.880,56.383 185.011 C 56.172 185.141,56.000 186.576,56.000 188.200 C 56.000 189.824,55.820 191.264,55.600 191.400 C 55.347 191.557,55.200 196.404,55.200 204.624 C 55.200 213.008,55.342 217.600,55.600 217.600 C 55.833 217.600,56.000 218.925,56.000 220.776 C 56.000 222.523,56.172 224.059,56.383 224.189 C 56.593 224.320,56.766 224.915,56.765 225.513 C 56.765 226.111,56.960 227.680,57.198 229.000 C 57.436 230.320,57.735 232.120,57.861 233.000 C 57.987 233.880,58.272 234.825,58.494 235.100 C 58.812 235.494,66.930 235.600,96.649 235.600 L 134.400 235.600 134.400 204.600 L 134.400 173.600 96.649 173.600 C 64.393 173.600,58.829 173.683,58.423 174.172 M167.200 204.602 L 167.200 235.605 197.900 235.502 L 228.600 235.400 228.710 205.400 C 228.771 188.900,228.722 174.995,228.603 174.500 L 228.385 173.600 197.792 173.600 L 167.200 173.600 167.200 204.602 M261.200 204.600 L 261.200 235.600 299.337 235.600 L 337.473 235.600 337.955 233.992 C 338.220 233.107,338.330 232.211,338.200 232.000 C 338.070 231.789,338.180 231.211,338.446 230.714 C 338.711 230.218,338.985 229.090,339.054 228.206 C 339.123 227.323,339.381 225.430,339.627 224.000 C 340.961 216.263,340.938 192.112,339.591 184.800 C 339.327 183.370,339.073 181.570,339.025 180.800 C 338.978 180.030,338.719 178.991,338.451 178.492 C 338.183 177.992,338.084 177.388,338.231 177.149 C 338.379 176.910,338.269 176.014,337.986 175.157 L 337.472 173.600 299.336 173.600 L 261.200 173.600 261.200 204.600 M215.600 204.600 L 215.600 222.800 197.800 222.800 L 180.000 222.800 180.000 204.600 L 180.000 186.400 197.800 186.400 L 215.600 186.400 215.600 204.600 M34.000 245.200 C 34.000 245.420,33.655 245.600,33.232 245.600 C 30.500 245.600,27.672 249.772,28.460 252.641 C 29.753 257.349,33.370 259.296,37.325 257.411 C 42.344 255.019,41.784 245.600,36.624 245.600 C 36.087 245.600,35.536 245.420,35.400 245.200 C 35.264 244.980,34.893 244.800,34.576 244.800 C 34.259 244.800,34.000 244.980,34.000 245.200 M149.800 245.200 C 149.664 245.420,149.150 245.600,148.658 245.600 C 143.711 245.600,143.215 256.292,148.108 257.443 C 148.718 257.586,149.314 257.860,149.432 258.052 C 149.728 258.530,151.496 258.492,151.800 258.000 C 151.936 257.780,152.368 257.600,152.759 257.600 C 153.765 257.600,156.400 255.247,156.400 254.349 C 156.400 253.937,156.559 253.600,156.754 253.600 C 156.948 253.600,157.108 252.700,157.108 251.600 C 157.108 250.500,156.948 249.600,156.754 249.600 C 156.559 249.600,156.398 249.375,156.397 249.100 C 156.390 248.180,153.591 245.600,152.598 245.600 C 152.075 245.600,151.536 245.420,151.400 245.200 C 151.264 244.980,150.904 244.800,150.600 244.800 C 150.296 244.800,149.936 244.980,149.800 245.200 M244.200 245.200 C 244.064 245.420,243.535 245.600,243.025 245.600 C 241.866 245.600,238.729 248.550,239.036 249.350 C 239.156 249.663,239.062 250.038,238.827 250.183 C 237.091 251.256,240.505 257.600,242.819 257.600 C 243.222 257.600,243.664 257.780,243.800 258.000 C 244.082 258.456,245.726 258.541,246.145 258.122 C 246.298 257.969,246.677 257.806,246.987 257.761 C 251.208 257.141,252.733 250.531,249.393 247.331 C 248.399 246.379,247.229 245.600,246.793 245.600 C 246.357 245.600,246.000 245.420,246.000 245.200 C 246.000 244.980,245.651 244.800,245.224 244.800 C 244.797 244.800,244.336 244.980,244.200 245.200 M359.800 245.200 C 359.664 245.420,359.158 245.607,358.676 245.616 C 356.824 245.651,354.000 249.139,354.000 251.393 C 354.000 253.832,356.697 257.600,358.442 257.600 C 358.859 257.600,359.200 257.804,359.200 258.053 C 359.200 259.649,365.135 256.859,366.226 254.749 C 368.002 251.316,365.578 245.600,362.346 245.600 C 361.962 245.600,361.536 245.420,361.400 245.200 C 361.264 244.980,360.904 244.800,360.600 244.800 C 360.296 244.800,359.936 244.980,359.800 245.200 M69.900 267.865 C 70.175 267.976,70.400 268.249,70.400 268.473 C 70.400 269.100,71.657 271.665,72.618 273.000 C 73.548 274.292,74.166 275.617,74.064 276.100 C 74.029 276.265,74.148 276.400,74.329 276.400 C 74.510 276.400,75.060 277.165,75.551 278.100 C 76.773 280.428,79.666 284.894,80.408 285.600 C 80.524 285.710,80.953 286.340,81.362 287.000 C 82.305 288.522,85.219 292.473,85.788 293.000 C 86.025 293.220,86.632 293.940,87.136 294.600 C 90.197 298.602,100.260 308.978,104.789 312.800 C 105.961 313.790,107.254 314.915,107.660 315.300 C 108.067 315.685,108.580 316.000,108.800 316.000 C 109.020 316.000,109.200 316.164,109.200 316.365 C 109.200 316.566,110.325 317.493,111.700 318.427 C 113.075 319.360,114.290 320.248,114.400 320.400 C 114.510 320.553,116.490 321.894,118.800 323.381 C 121.110 324.869,123.770 326.606,124.712 327.243 C 125.653 327.879,126.688 328.400,127.012 328.400 C 127.335 328.400,127.600 328.540,127.600 328.710 C 127.600 328.881,128.408 329.376,129.396 329.810 C 130.384 330.245,131.194 330.735,131.196 330.900 C 131.198 331.065,131.448 331.200,131.751 331.200 C 132.054 331.200,132.526 331.470,132.800 331.800 C 134.408 333.738,134.400 333.904,134.400 300.000 L 134.400 267.600 101.900 267.632 C 84.025 267.649,69.625 267.754,69.900 267.865 M167.200 305.753 L 167.200 343.907 168.100 344.214 C 169.092 344.554,171.933 345.132,173.800 345.375 C 174.460 345.461,176.260 345.737,177.800 345.987 C 187.087 347.498,209.263 347.513,217.800 346.014 C 219.340 345.743,221.230 345.448,222.000 345.357 C 225.891 344.897,227.059 344.649,227.892 344.103 L 228.800 343.508 228.800 306.187 C 228.800 285.660,228.691 268.581,228.557 268.233 C 228.339 267.663,225.252 267.600,197.757 267.600 L 167.200 267.600 167.200 305.753 M261.200 300.000 C 261.200 323.220,261.324 332.400,261.638 332.400 C 262.064 332.400,264.398 331.212,264.800 330.790 C 264.910 330.675,266.170 329.969,267.600 329.222 C 271.195 327.343,280.141 321.630,282.198 319.900 C 282.917 319.295,283.643 318.800,283.811 318.800 C 283.979 318.800,284.495 318.424,284.958 317.964 C 285.421 317.504,286.970 316.229,288.400 315.132 C 289.830 314.034,291.450 312.642,292.000 312.038 C 292.550 311.434,293.317 310.765,293.705 310.552 C 294.697 310.004,301.384 303.402,303.139 301.237 C 303.943 300.246,305.230 298.784,306.000 297.989 C 306.770 297.193,308.077 295.655,308.904 294.571 C 309.731 293.487,311.261 291.515,312.304 290.189 C 314.645 287.213,316.000 285.308,316.000 284.992 C 316.000 284.776,318.171 281.735,319.194 280.517 C 319.417 280.251,319.600 279.949,319.600 279.846 C 319.600 279.742,320.205 278.609,320.945 277.329 C 323.709 272.543,324.546 271.000,324.377 271.000 C 324.281 271.000,324.607 270.432,325.102 269.738 C 325.596 269.044,326.000 268.279,326.000 268.038 C 326.000 267.724,316.819 267.600,293.600 267.600 L 261.200 267.600 261.200 300.000 M148.400 361.909 C 148.400 362.079,147.809 362.536,147.087 362.925 C 143.141 365.050,143.684 371.602,147.996 373.904 C 154.986 377.634,160.751 367.249,154.200 362.730 C 152.647 361.659,148.400 361.058,148.400 361.909 M241.319 362.873 C 240.284 363.638,239.542 364.552,239.388 365.253 C 239.251 365.879,238.972 366.494,238.769 366.619 C 237.806 367.214,238.929 371.059,240.535 372.665 C 244.940 377.069,251.590 373.660,251.125 367.235 C 250.778 362.431,245.248 359.971,241.319 362.873 " stroke="none" fill="#fbfbfb" fill-rule="evenodd"></path><path id="path1" d="M182.206 7.927 C 182.136 7.998,180.486 8.217,178.539 8.416 C 172.076 9.075,165.421 9.958,163.800 10.372 C 162.920 10.597,161.536 10.785,160.724 10.790 C 159.912 10.796,159.136 10.980,159.000 11.200 C 158.864 11.420,158.054 11.600,157.200 11.600 C 156.346 11.600,155.547 11.762,155.424 11.961 C 155.302 12.159,154.121 12.447,152.800 12.600 C 151.479 12.753,150.298 13.041,150.176 13.239 C 150.053 13.438,149.344 13.600,148.600 13.600 C 147.856 13.600,147.146 13.764,147.022 13.965 C 146.897 14.166,146.032 14.456,145.098 14.610 C 144.164 14.764,143.220 15.026,143.000 15.191 C 142.780 15.356,141.827 15.609,140.883 15.753 C 139.938 15.897,138.858 16.171,138.483 16.361 C 137.009 17.108,135.741 17.565,134.427 17.825 C 133.672 17.974,132.454 18.433,131.719 18.845 C 130.985 19.258,130.253 19.567,130.092 19.534 C 129.753 19.463,128.507 19.895,127.505 20.429 C 127.123 20.633,126.611 20.800,126.366 20.800 C 126.121 20.800,125.264 21.088,124.460 21.441 C 123.657 21.793,122.640 22.226,122.200 22.403 C 121.342 22.748,117.065 24.706,113.794 26.252 C 112.691 26.773,111.566 27.200,111.294 27.200 C 111.022 27.200,110.800 27.360,110.800 27.557 C 110.800 27.753,110.370 28.021,109.845 28.153 C 109.320 28.285,107.745 29.056,106.345 29.866 C 104.945 30.676,102.630 31.945,101.200 32.685 C 98.404 34.133,97.663 34.560,95.803 35.800 C 95.143 36.240,94.023 36.913,93.313 37.295 C 92.604 37.677,90.955 38.802,89.649 39.795 C 88.344 40.788,87.115 41.600,86.919 41.600 C 86.723 41.600,86.211 41.878,85.781 42.218 C 85.352 42.558,82.930 44.380,80.400 46.267 C 77.870 48.154,75.260 50.137,74.600 50.675 C 71.344 53.328,69.661 54.756,67.817 56.435 C 66.707 57.444,65.170 58.794,64.400 59.435 C 60.779 62.448,49.693 74.084,47.153 77.539 C 46.514 78.407,45.723 79.221,45.396 79.346 C 45.068 79.472,44.800 79.807,44.800 80.090 C 44.800 80.373,44.125 81.364,43.300 82.293 C 40.827 85.078,39.600 86.685,39.600 87.141 C 39.600 87.378,39.240 87.765,38.800 88.000 C 38.360 88.235,38.000 88.633,38.000 88.883 C 38.000 89.133,37.701 89.667,37.336 90.071 C 36.970 90.475,36.475 91.146,36.236 91.561 C 35.996 91.977,35.080 93.364,34.200 94.643 C 32.229 97.510,31.684 98.403,31.360 99.300 C 31.221 99.685,30.948 100.000,30.753 100.000 C 30.559 100.000,30.400 100.167,30.400 100.372 C 30.400 100.576,29.680 101.827,28.800 103.152 C 27.920 104.477,27.200 105.750,27.200 105.981 C 27.200 106.211,27.020 106.400,26.800 106.400 C 26.580 106.400,26.400 106.628,26.400 106.907 C 26.400 107.186,25.944 108.086,25.386 108.907 C 24.828 109.728,24.513 110.403,24.686 110.406 C 24.859 110.409,24.811 110.544,24.579 110.706 C 24.096 111.044,22.800 113.705,22.800 114.360 C 22.800 114.602,22.650 114.800,22.468 114.800 C 22.285 114.800,21.936 115.205,21.693 115.700 C 20.938 117.239,19.637 120.404,19.653 120.664 C 19.661 120.799,19.509 121.021,19.313 121.155 C 19.118 121.290,18.644 122.120,18.260 123.000 C 17.876 123.880,17.390 124.913,17.181 125.295 C 16.971 125.677,16.800 126.262,16.800 126.595 C 16.800 126.928,16.620 127.200,16.400 127.200 C 16.180 127.200,15.994 127.515,15.986 127.900 C 15.979 128.285,15.625 129.320,15.200 130.200 C 14.775 131.080,14.421 132.020,14.414 132.288 C 14.406 132.556,14.062 133.378,13.648 134.115 C 13.234 134.851,12.761 136.066,12.597 136.814 C 12.304 138.148,12.142 138.576,11.312 140.215 C 11.085 140.664,10.771 141.788,10.615 142.713 C 10.458 143.639,10.176 144.491,9.988 144.607 C 9.800 144.724,9.525 145.627,9.377 146.614 C 9.229 147.602,8.948 148.508,8.754 148.629 C 8.559 148.749,8.400 149.347,8.400 149.957 C 8.400 150.567,8.275 151.192,8.122 151.345 C 7.829 151.638,7.759 151.867,7.377 153.800 C 7.247 154.460,6.995 155.360,6.819 155.800 C 6.642 156.240,6.288 157.590,6.033 158.800 C 5.778 160.010,5.388 161.810,5.166 162.800 C 4.944 163.790,4.582 165.860,4.361 167.400 C 4.141 168.940,3.799 170.560,3.601 171.000 C 3.229 171.829,3.092 172.795,2.438 179.200 C 2.225 181.290,1.866 183.990,1.641 185.200 C 0.279 192.515,0.481 217.574,1.975 226.600 C 2.194 227.920,2.407 229.952,2.448 231.115 C 2.490 232.278,2.676 233.324,2.862 233.438 C 3.048 233.553,3.200 234.539,3.200 235.629 C 3.200 236.719,3.374 237.923,3.587 238.305 C 3.800 238.687,4.152 240.260,4.369 241.800 C 4.585 243.340,4.945 245.410,5.168 246.400 C 5.852 249.439,6.650 252.569,6.901 253.200 C 7.033 253.530,7.254 254.651,7.393 255.691 C 7.532 256.731,7.816 257.686,8.023 257.814 C 8.230 257.942,8.400 258.566,8.400 259.200 C 8.400 259.834,8.559 260.451,8.754 260.571 C 8.948 260.692,9.229 261.598,9.377 262.586 C 9.525 263.573,9.800 264.476,9.988 264.593 C 10.176 264.709,10.452 265.522,10.600 266.398 C 10.748 267.275,11.214 268.706,11.635 269.577 C 12.056 270.448,12.400 271.429,12.400 271.757 C 12.400 272.085,12.580 272.464,12.800 272.600 C 13.020 272.736,13.206 273.152,13.214 273.524 C 13.221 273.896,13.575 274.920,14.000 275.800 C 14.425 276.680,14.779 277.627,14.786 277.905 C 14.794 278.183,14.974 278.723,15.186 279.105 C 15.398 279.487,15.954 280.700,16.420 281.800 C 18.685 287.138,24.623 299.258,25.592 300.519 C 25.964 301.004,26.522 301.985,26.832 302.700 C 27.142 303.415,27.490 304.000,27.607 304.000 C 27.723 304.000,28.169 304.675,28.599 305.500 C 29.028 306.325,29.744 307.540,30.190 308.200 C 31.379 309.957,31.971 310.924,32.273 311.600 C 32.421 311.930,32.660 312.290,32.805 312.400 C 32.951 312.510,33.558 313.410,34.155 314.400 C 34.753 315.390,36.044 317.280,37.025 318.600 C 38.006 319.920,39.115 321.450,39.490 322.000 C 40.209 323.056,42.851 326.460,43.214 326.800 C 43.331 326.910,43.834 327.540,44.330 328.200 C 46.088 330.536,47.820 332.595,49.472 334.312 C 50.392 335.267,51.828 336.893,52.664 337.925 C 54.461 340.142,63.070 348.710,64.857 350.059 C 65.542 350.577,66.799 351.654,67.651 352.453 C 69.317 354.016,73.893 357.916,75.723 359.331 C 76.340 359.809,77.420 360.652,78.123 361.203 C 78.825 361.755,80.300 362.830,81.400 363.592 C 83.628 365.134,83.691 365.180,85.458 366.594 C 86.150 367.147,86.819 367.600,86.946 367.600 C 87.196 367.600,90.872 370.050,91.200 370.435 C 91.310 370.564,92.300 371.185,93.400 371.815 C 94.500 372.446,95.490 373.060,95.600 373.181 C 95.710 373.301,96.430 373.732,97.200 374.138 C 99.557 375.380,100.990 376.190,101.200 376.400 C 102.087 377.287,117.765 384.963,122.400 386.780 C 123.610 387.255,124.960 387.794,125.400 387.979 C 125.840 388.164,127.100 388.622,128.200 388.996 C 129.300 389.370,130.945 390.011,131.856 390.419 C 132.767 390.828,134.027 391.276,134.656 391.415 C 135.892 391.687,139.304 392.720,140.600 393.215 C 141.040 393.383,142.480 393.826,143.800 394.200 C 145.120 394.574,146.740 395.034,147.400 395.223 C 150.059 395.984,155.984 397.307,159.000 397.814 C 160.760 398.110,163.100 398.565,164.200 398.825 C 165.300 399.086,166.830 399.362,167.600 399.439 C 169.176 399.596,174.119 400.169,179.200 400.783 C 183.821 401.341,212.423 401.345,217.200 400.789 C 219.290 400.545,222.260 400.171,223.800 399.957 C 225.340 399.744,227.320 399.508,228.200 399.434 C 229.080 399.359,230.700 399.086,231.800 398.825 C 232.900 398.565,235.240 398.101,237.000 397.794 C 242.222 396.884,242.979 396.716,243.418 396.368 C 243.649 396.186,244.189 396.031,244.618 396.023 C 246.147 395.996,248.411 395.506,248.627 395.156 C 248.748 394.960,249.190 394.800,249.610 394.800 C 250.029 394.800,251.143 394.554,252.086 394.252 C 253.029 393.951,254.880 393.401,256.200 393.029 C 257.520 392.657,258.913 392.184,259.295 391.977 C 259.677 391.769,260.341 391.600,260.771 391.600 C 261.201 391.600,261.664 391.420,261.800 391.200 C 261.936 390.980,262.352 390.799,262.724 390.798 C 263.096 390.796,263.903 390.533,264.517 390.212 C 265.131 389.892,266.258 389.513,267.021 389.370 C 267.784 389.226,268.507 388.950,268.628 388.755 C 268.749 388.560,269.197 388.400,269.624 388.400 C 270.051 388.400,270.400 388.220,270.400 388.000 C 270.400 387.780,270.685 387.600,271.033 387.600 C 271.616 387.600,274.761 386.337,279.187 384.326 C 280.170 383.879,281.340 383.354,281.787 383.158 C 282.234 382.962,282.870 382.636,283.200 382.433 C 283.530 382.230,285.377 381.310,287.304 380.388 C 289.230 379.466,290.898 378.566,291.008 378.387 C 291.119 378.208,291.747 377.943,292.405 377.799 C 293.062 377.655,293.600 377.371,293.600 377.168 C 293.600 376.966,293.870 376.800,294.200 376.800 C 294.530 376.800,294.800 376.664,294.800 376.498 C 294.800 376.331,295.385 375.941,296.100 375.629 C 296.815 375.318,297.957 374.644,298.638 374.132 C 299.319 373.619,300.071 373.200,300.309 373.200 C 300.548 373.200,300.988 372.975,301.288 372.700 C 302.085 371.970,303.299 371.211,304.100 370.942 C 304.485 370.812,304.800 370.543,304.800 370.343 C 304.800 370.144,305.205 369.805,305.700 369.591 C 306.930 369.059,307.908 368.428,309.867 366.900 C 310.784 366.185,311.701 365.600,311.905 365.600 C 312.109 365.600,312.602 365.240,313.000 364.800 C 313.398 364.360,313.972 364.000,314.275 364.000 C 314.577 364.000,314.926 363.738,315.048 363.418 C 315.171 363.099,315.856 362.492,316.570 362.070 C 317.285 361.649,318.214 361.022,318.635 360.677 C 325.022 355.446,328.296 352.643,330.687 350.359 C 332.275 348.841,333.666 347.600,333.779 347.600 C 334.226 347.600,346.496 334.691,348.172 332.457 C 348.627 331.850,349.405 330.925,349.900 330.401 C 350.395 329.878,350.800 329.307,350.800 329.134 C 350.800 328.961,351.430 328.246,352.200 327.545 C 352.970 326.845,353.600 326.106,353.600 325.903 C 353.600 325.700,354.275 324.696,355.100 323.671 C 355.925 322.647,356.732 321.626,356.894 321.404 C 357.056 321.182,357.641 320.434,358.194 319.742 C 358.747 319.050,359.200 318.356,359.200 318.200 C 359.200 318.043,359.785 317.178,360.500 316.277 C 361.889 314.526,362.523 313.536,363.173 312.100 C 363.397 311.605,363.744 311.200,363.943 311.200 C 364.143 311.200,364.412 310.885,364.542 310.500 C 364.797 309.740,365.651 308.321,366.046 308.000 C 366.181 307.890,366.419 307.395,366.573 306.900 C 366.728 306.405,367.022 306.000,367.227 306.000 C 367.432 306.000,367.600 305.816,367.600 305.590 C 367.600 305.365,368.277 304.060,369.105 302.690 C 371.881 298.099,379.211 283.458,379.194 282.539 C 379.190 282.353,379.668 281.210,380.255 280.000 C 380.843 278.790,381.497 277.350,381.708 276.800 C 381.920 276.250,382.258 275.478,382.460 275.084 C 382.662 274.690,382.728 274.207,382.607 274.011 C 382.486 273.816,382.570 273.542,382.793 273.404 C 383.017 273.266,383.200 272.803,383.200 272.376 C 383.200 271.949,383.364 271.600,383.565 271.600 C 383.766 271.600,384.051 270.881,384.200 270.002 C 384.348 269.123,384.613 268.315,384.789 268.207 C 384.964 268.099,385.229 267.202,385.377 266.214 C 385.525 265.227,385.816 264.314,386.023 264.186 C 386.230 264.058,386.400 263.601,386.400 263.171 C 386.400 262.741,386.563 262.077,386.762 261.695 C 386.962 261.313,387.429 259.830,387.800 258.400 C 388.171 256.970,388.636 255.491,388.832 255.114 C 389.029 254.736,389.307 253.426,389.451 252.202 C 389.595 250.979,389.867 249.882,390.056 249.765 C 390.245 249.648,390.400 249.034,390.400 248.400 C 390.400 247.766,390.579 247.137,390.798 247.001 C 391.017 246.866,391.187 246.180,391.176 245.478 C 391.155 244.184,391.557 241.843,392.423 238.200 C 392.685 237.100,392.957 235.570,393.027 234.800 C 393.098 234.030,393.353 231.780,393.594 229.800 C 393.835 227.820,394.137 225.210,394.267 224.000 C 394.589 220.986,394.556 188.376,394.228 185.400 C 394.082 184.080,393.782 181.380,393.560 179.400 C 393.338 177.420,393.106 175.260,393.045 174.600 C 392.826 172.233,392.294 169.393,391.995 169.000 C 391.827 168.780,391.582 167.790,391.449 166.800 C 390.837 162.227,390.384 159.912,390.000 159.400 C 389.836 159.180,389.574 158.100,389.419 157.000 C 389.263 155.900,388.701 153.691,388.168 152.092 C 387.636 150.492,387.200 148.825,387.200 148.386 C 387.200 147.948,387.020 147.232,386.800 146.795 C 386.580 146.358,386.232 145.662,386.027 145.249 C 385.822 144.836,385.529 143.801,385.375 142.949 C 385.221 142.097,384.955 141.220,384.784 141.000 C 384.612 140.780,384.345 139.925,384.191 139.100 C 384.037 138.275,383.751 137.600,383.555 137.600 C 383.360 137.600,383.200 137.150,383.200 136.600 C 383.200 136.050,383.036 135.600,382.835 135.600 C 382.634 135.600,382.349 134.880,382.200 134.000 C 382.051 133.120,381.789 132.400,381.617 132.400 C 381.445 132.400,381.202 131.768,381.077 130.996 C 380.952 130.224,380.478 129.071,380.025 128.434 C 379.571 127.798,379.200 127.060,379.200 126.795 C 379.200 126.031,374.309 115.876,370.917 109.600 C 370.145 108.170,369.231 106.460,368.888 105.800 C 368.544 105.140,368.157 104.510,368.028 104.400 C 367.898 104.290,367.438 103.525,367.005 102.700 C 366.572 101.875,366.100 101.200,365.956 101.200 C 365.811 101.200,365.584 100.885,365.451 100.500 C 365.318 100.115,364.849 99.260,364.409 98.600 C 363.969 97.940,363.485 97.130,363.334 96.800 C 363.182 96.470,362.955 96.110,362.828 96.000 C 362.701 95.890,362.059 94.990,361.400 94.000 C 360.741 93.010,359.977 92.056,359.701 91.880 C 359.426 91.704,359.200 91.325,359.200 91.039 C 359.200 90.752,358.795 90.054,358.300 89.489 C 357.805 88.924,356.950 87.813,356.400 87.021 C 355.850 86.229,354.995 85.126,354.500 84.570 C 354.005 84.014,353.600 83.426,353.600 83.263 C 353.600 83.100,353.015 82.334,352.300 81.560 C 351.585 80.786,350.345 79.354,349.544 78.377 C 342.579 69.874,331.677 59.007,323.648 52.564 C 323.124 52.144,321.864 51.120,320.848 50.289 C 319.831 49.459,318.550 48.427,318.000 47.997 C 317.450 47.567,316.434 46.762,315.742 46.208 C 315.050 45.653,314.326 45.200,314.131 45.200 C 313.937 45.200,313.470 44.840,313.093 44.400 C 312.716 43.960,312.146 43.600,311.827 43.600 C 311.507 43.600,311.010 43.277,310.723 42.883 C 310.158 42.108,306.240 39.600,305.594 39.600 C 305.377 39.600,305.200 39.437,305.200 39.238 C 305.200 39.039,304.366 38.364,303.346 37.738 C 302.326 37.112,301.021 36.294,300.446 35.920 C 298.782 34.838,294.257 32.400,293.913 32.400 C 293.741 32.400,293.600 32.234,293.600 32.032 C 293.600 31.829,293.062 31.545,292.405 31.401 C 291.747 31.257,291.115 30.986,291.000 30.800 C 290.885 30.615,289.578 29.876,288.096 29.158 C 286.613 28.441,285.340 27.707,285.267 27.527 C 285.193 27.347,284.883 27.200,284.577 27.200 C 284.271 27.200,282.801 26.586,281.310 25.835 C 279.820 25.084,277.880 24.173,277.000 23.810 C 276.120 23.448,274.890 22.892,274.268 22.576 C 273.645 22.259,272.952 22.000,272.728 22.000 C 272.323 22.000,270.862 21.398,267.800 19.971 C 266.920 19.561,265.660 19.105,265.000 18.957 C 264.340 18.810,263.620 18.551,263.400 18.381 C 263.180 18.211,262.280 17.942,261.400 17.784 C 260.520 17.625,259.620 17.364,259.400 17.203 C 259.050 16.947,257.083 16.324,256.333 16.233 C 256.187 16.215,255.932 16.065,255.767 15.900 C 255.602 15.735,255.116 15.600,254.687 15.600 C 253.984 15.600,251.075 14.765,249.000 13.968 C 248.118 13.629,246.905 13.358,243.600 12.761 C 242.390 12.542,241.087 12.192,240.705 11.982 C 240.323 11.772,239.408 11.600,238.672 11.600 C 237.936 11.600,237.199 11.465,237.036 11.300 C 236.764 11.026,235.183 10.739,227.600 9.585 C 226.170 9.367,224.100 9.111,223.000 9.016 C 221.900 8.921,219.470 8.651,217.600 8.415 C 214.610 8.040,182.536 7.597,182.206 7.927 M153.998 35.399 C 157.429 37.565,158.163 42.725,155.424 45.416 C 152.349 48.437,146.835 47.611,145.057 43.864 C 142.290 38.033,148.643 32.018,153.998 35.399 M247.530 35.025 C 252.323 37.416,252.527 44.282,247.874 46.603 C 244.955 48.059,239.952 46.513,239.396 43.982 C 239.254 43.337,238.972 42.706,238.769 42.581 C 238.117 42.178,238.374 40.126,239.300 38.338 C 241.093 34.875,244.489 33.508,247.530 35.025 M211.000 62.383 C 213.640 62.608,216.340 62.877,217.000 62.979 C 217.660 63.082,219.420 63.289,220.911 63.439 C 222.402 63.589,223.717 63.866,223.834 64.056 C 223.951 64.245,224.819 64.400,225.762 64.400 C 229.065 64.400,228.817 61.111,228.702 103.434 L 228.600 141.000 197.900 141.102 L 167.200 141.205 167.200 103.347 C 167.200 60.748,166.908 64.438,170.276 64.413 C 171.198 64.406,172.048 64.245,172.165 64.057 C 172.395 63.684,176.610 63.105,178.678 63.161 C 179.380 63.180,180.066 63.017,180.201 62.798 C 180.337 62.579,181.922 62.387,183.724 62.370 C 185.526 62.354,187.810 62.219,188.800 62.070 C 191.309 61.694,205.221 61.889,211.000 62.383 M134.400 109.000 L 134.400 141.200 102.400 141.200 C 80.224 141.200,70.400 141.070,70.400 140.778 C 70.400 140.030,71.983 136.853,73.613 134.331 C 74.486 132.981,75.200 131.634,75.200 131.338 C 75.200 131.042,75.359 130.800,75.553 130.800 C 75.748 130.800,76.016 130.485,76.149 130.100 C 76.437 129.265,77.033 128.335,80.200 123.778 C 81.520 121.879,82.781 120.013,83.003 119.631 C 83.224 119.250,83.674 118.655,84.003 118.310 C 84.331 117.965,85.230 116.833,86.000 115.796 C 86.770 114.758,88.255 113.005,89.300 111.900 C 90.345 110.795,91.200 109.761,91.200 109.601 C 91.200 109.218,101.848 98.694,103.428 97.516 C 104.104 97.012,105.116 96.150,105.678 95.600 C 106.943 94.361,108.351 93.200,108.586 93.200 C 108.684 93.200,109.199 92.795,109.731 92.300 C 110.263 91.805,111.362 90.950,112.173 90.400 C 112.984 89.850,113.862 89.214,114.124 88.987 C 115.114 88.128,117.491 86.501,119.949 85.000 C 120.670 84.560,121.633 83.885,122.091 83.500 C 122.548 83.115,123.103 82.800,123.323 82.800 C 123.544 82.800,124.281 82.381,124.962 81.868 C 125.643 81.356,126.785 80.682,127.500 80.371 C 128.215 80.059,128.800 79.683,128.800 79.534 C 128.800 79.385,129.340 79.145,130.000 79.000 C 130.660 78.855,131.200 78.571,131.200 78.368 C 131.200 78.166,131.448 78.000,131.751 78.000 C 132.054 78.000,132.526 77.730,132.800 77.400 C 134.408 75.463,134.400 75.307,134.400 109.000 M263.923 77.869 C 264.955 78.456,266.700 79.413,267.800 79.994 C 270.593 81.470,277.372 85.716,277.533 86.090 C 277.607 86.261,277.851 86.400,278.076 86.400 C 278.300 86.400,278.993 86.805,279.615 87.300 C 280.236 87.795,281.401 88.650,282.203 89.200 C 283.005 89.750,284.103 90.560,284.644 91.000 C 285.184 91.440,286.441 92.430,287.436 93.200 C 289.406 94.725,292.641 97.543,297.077 101.600 C 300.028 104.299,305.612 110.440,308.896 114.600 C 309.938 115.920,311.120 117.360,311.522 117.800 C 311.925 118.240,312.551 119.050,312.914 119.600 C 313.277 120.150,314.120 121.371,314.787 122.314 C 315.454 123.257,316.000 124.187,316.000 124.381 C 316.000 124.575,316.135 124.793,316.300 124.867 C 316.465 124.940,317.139 125.810,317.799 126.800 C 318.458 127.790,319.106 128.690,319.239 128.800 C 319.451 128.975,320.501 130.829,322.752 135.000 C 323.109 135.660,323.503 136.290,323.629 136.400 C 323.848 136.591,324.432 137.980,324.470 138.400 C 324.480 138.510,324.823 139.070,325.232 139.645 C 325.641 140.220,325.862 140.805,325.722 140.945 C 325.581 141.085,311.007 141.200,293.333 141.200 L 261.200 141.200 261.200 109.000 C 261.200 86.632,261.329 76.800,261.623 76.800 C 261.856 76.800,262.891 77.281,263.923 77.869 M37.606 151.541 C 43.354 154.595,41.338 163.605,34.909 163.597 C 31.039 163.593,25.872 157.763,28.369 156.219 C 28.572 156.094,28.851 155.478,28.989 154.850 C 29.681 151.698,34.453 149.865,37.606 151.541 M153.689 151.750 C 159.493 154.973,157.415 163.603,150.836 163.599 C 146.603 163.596,144.088 160.735,144.533 156.428 C 144.659 155.210,144.950 154.150,145.181 154.073 C 145.411 153.996,145.600 153.703,145.600 153.421 C 145.600 151.486,151.150 150.340,153.689 151.750 M246.617 151.227 C 246.762 151.462,247.133 151.558,247.440 151.440 C 247.748 151.322,248.000 151.369,248.000 151.545 C 248.000 151.721,248.416 152.087,248.923 152.359 C 253.618 154.871,250.845 163.600,245.353 163.600 C 242.660 163.600,239.751 162.000,239.381 160.315 C 239.248 159.707,238.972 159.106,238.769 158.981 C 238.272 158.674,238.297 156.111,238.800 155.800 C 239.020 155.664,239.200 155.237,239.200 154.851 C 239.200 152.662,245.578 149.546,246.617 151.227 M363.463 151.807 C 369.430 154.908,367.125 163.600,360.336 163.600 C 359.051 163.600,358.000 163.461,358.000 163.291 C 358.000 163.121,357.379 162.648,356.620 162.239 C 355.711 161.749,355.155 161.106,354.990 160.353 C 354.851 159.724,354.572 159.106,354.369 158.981 C 353.211 158.265,354.456 154.446,356.469 152.538 C 358.581 150.536,360.610 150.324,363.463 151.807 M134.400 204.600 L 134.400 235.600 96.649 235.600 C 66.930 235.600,58.812 235.494,58.494 235.100 C 58.272 234.825,57.987 233.880,57.861 233.000 C 57.735 232.120,57.436 230.320,57.198 229.000 C 56.960 227.680,56.765 226.111,56.765 225.513 C 56.766 224.915,56.593 224.320,56.383 224.189 C 56.172 224.059,56.000 222.523,56.000 220.776 C 56.000 218.925,55.833 217.600,55.600 217.600 C 55.342 217.600,55.200 213.008,55.200 204.624 C 55.200 196.404,55.347 191.557,55.600 191.400 C 55.820 191.264,56.000 189.824,56.000 188.200 C 56.000 186.576,56.172 185.141,56.383 185.011 C 56.593 184.880,56.772 184.285,56.780 183.687 C 56.807 181.653,57.281 178.201,57.588 177.800 C 57.757 177.580,57.907 176.803,57.921 176.072 C 57.975 173.419,55.136 173.600,96.649 173.600 L 134.400 173.600 134.400 204.600 M228.603 174.500 C 228.722 174.995,228.771 188.900,228.710 205.400 L 228.600 235.400 197.900 235.502 L 167.200 235.605 167.200 204.602 L 167.200 173.600 197.792 173.600 L 228.385 173.600 228.603 174.500 M337.986 175.157 C 338.269 176.014,338.379 176.910,338.231 177.149 C 338.084 177.388,338.183 177.992,338.451 178.492 C 338.719 178.991,338.978 180.030,339.025 180.800 C 339.073 181.570,339.327 183.370,339.591 184.800 C 340.938 192.112,340.961 216.263,339.627 224.000 C 339.381 225.430,339.123 227.323,339.054 228.206 C 338.985 229.090,338.711 230.218,338.446 230.714 C 338.180 231.211,338.070 231.789,338.200 232.000 C 338.330 232.211,338.220 233.107,337.955 233.992 L 337.473 235.600 299.337 235.600 L 261.200 235.600 261.200 204.600 L 261.200 173.600 299.336 173.600 L 337.472 173.600 337.986 175.157 M180.000 204.600 L 180.000 222.800 197.800 222.800 L 215.600 222.800 215.600 204.600 L 215.600 186.400 197.800 186.400 L 180.000 186.400 180.000 204.600 M35.400 245.200 C 35.536 245.420,36.087 245.600,36.624 245.600 C 38.733 245.600,40.800 248.455,40.800 251.368 C 40.800 259.707,30.687 260.751,28.460 252.641 C 27.672 249.772,30.500 245.600,33.232 245.600 C 33.655 245.600,34.000 245.420,34.000 245.200 C 34.000 244.980,34.259 244.800,34.576 244.800 C 34.893 244.800,35.264 244.980,35.400 245.200 M151.400 245.200 C 151.536 245.420,152.075 245.600,152.598 245.600 C 153.591 245.600,156.390 248.180,156.397 249.100 C 156.398 249.375,156.559 249.600,156.754 249.600 C 156.948 249.600,157.108 250.500,157.108 251.600 C 157.108 252.700,156.948 253.600,156.754 253.600 C 156.559 253.600,156.400 253.937,156.400 254.349 C 156.400 255.247,153.765 257.600,152.759 257.600 C 152.368 257.600,151.936 257.780,151.800 258.000 C 151.496 258.492,149.728 258.530,149.432 258.052 C 149.314 257.860,148.718 257.586,148.108 257.443 C 143.215 256.292,143.711 245.600,148.658 245.600 C 149.150 245.600,149.664 245.420,149.800 245.200 C 149.936 244.980,150.296 244.800,150.600 244.800 C 150.904 244.800,151.264 244.980,151.400 245.200 M246.000 245.200 C 246.000 245.420,246.357 245.600,246.793 245.600 C 247.229 245.600,248.399 246.379,249.393 247.331 C 252.733 250.531,251.208 257.141,246.987 257.761 C 246.677 257.806,246.298 257.969,246.145 258.122 C 245.726 258.541,244.082 258.456,243.800 258.000 C 243.664 257.780,243.222 257.600,242.819 257.600 C 240.505 257.600,237.091 251.256,238.827 250.183 C 239.062 250.038,239.156 249.663,239.036 249.350 C 238.729 248.550,241.866 245.600,243.025 245.600 C 243.535 245.600,244.064 245.420,244.200 245.200 C 244.336 244.980,244.797 244.800,245.224 244.800 C 245.651 244.800,246.000 244.980,246.000 245.200 M361.400 245.200 C 361.536 245.420,361.962 245.600,362.346 245.600 C 365.578 245.600,368.002 251.316,366.226 254.749 C 365.135 256.859,359.200 259.649,359.200 258.053 C 359.200 257.804,358.859 257.600,358.442 257.600 C 356.697 257.600,354.000 253.832,354.000 251.393 C 354.000 249.139,356.824 245.651,358.676 245.616 C 359.158 245.607,359.664 245.420,359.800 245.200 C 359.936 244.980,360.296 244.800,360.600 244.800 C 360.904 244.800,361.264 244.980,361.400 245.200 M134.400 300.000 C 134.400 333.904,134.408 333.738,132.800 331.800 C 132.526 331.470,132.054 331.200,131.751 331.200 C 131.448 331.200,131.198 331.065,131.196 330.900 C 131.194 330.735,130.384 330.245,129.396 329.810 C 128.408 329.376,127.600 328.881,127.600 328.710 C 127.600 328.540,127.335 328.400,127.012 328.400 C 126.688 328.400,125.653 327.879,124.712 327.243 C 123.770 326.606,121.110 324.869,118.800 323.381 C 116.490 321.894,114.510 320.553,114.400 320.400 C 114.290 320.248,113.075 319.360,111.700 318.427 C 110.325 317.493,109.200 316.566,109.200 316.365 C 109.200 316.164,109.020 316.000,108.800 316.000 C 108.580 316.000,108.067 315.685,107.660 315.300 C 107.254 314.915,105.961 313.790,104.789 312.800 C 100.260 308.978,90.197 298.602,87.136 294.600 C 86.632 293.940,86.025 293.220,85.788 293.000 C 85.219 292.473,82.305 288.522,81.362 287.000 C 80.953 286.340,80.524 285.710,80.408 285.600 C 79.666 284.894,76.773 280.428,75.551 278.100 C 75.060 277.165,74.510 276.400,74.329 276.400 C 74.148 276.400,74.029 276.265,74.064 276.100 C 74.166 275.617,73.548 274.292,72.618 273.000 C 71.657 271.665,70.400 269.100,70.400 268.473 C 70.400 268.249,70.175 267.976,69.900 267.865 C 69.625 267.754,84.025 267.649,101.900 267.632 L 134.400 267.600 134.400 300.000 M228.557 268.233 C 228.691 268.581,228.800 285.660,228.800 306.187 L 228.800 343.508 227.892 344.103 C 227.059 344.649,225.891 344.897,222.000 345.357 C 221.230 345.448,219.340 345.743,217.800 346.014 C 209.263 347.513,187.087 347.498,177.800 345.987 C 176.260 345.737,174.460 345.461,173.800 345.375 C 171.933 345.132,169.092 344.554,168.100 344.214 L 167.200 343.907 167.200 305.753 L 167.200 267.600 197.757 267.600 C 225.252 267.600,228.339 267.663,228.557 268.233 M326.000 268.038 C 326.000 268.279,325.596 269.044,325.102 269.738 C 324.607 270.432,324.281 271.000,324.377 271.000 C 324.546 271.000,323.709 272.543,320.945 277.329 C 320.205 278.609,319.600 279.742,319.600 279.846 C 319.600 279.949,319.417 280.251,319.194 280.517 C 318.171 281.735,316.000 284.776,316.000 284.992 C 316.000 285.308,314.645 287.213,312.304 290.189 C 311.261 291.515,309.731 293.487,308.904 294.571 C 308.077 295.655,306.770 297.193,306.000 297.989 C 305.230 298.784,303.943 300.246,303.139 301.237 C 301.384 303.402,294.697 310.004,293.705 310.552 C 293.317 310.765,292.550 311.434,292.000 312.038 C 291.450 312.642,289.830 314.034,288.400 315.132 C 286.970 316.229,285.421 317.504,284.958 317.964 C 284.495 318.424,283.979 318.800,283.811 318.800 C 283.643 318.800,282.917 319.295,282.198 319.900 C 280.141 321.630,271.195 327.343,267.600 329.222 C 266.170 329.969,264.910 330.675,264.800 330.790 C 264.398 331.212,262.064 332.400,261.638 332.400 C 261.324 332.400,261.200 323.220,261.200 300.000 L 261.200 267.600 293.600 267.600 C 316.819 267.600,326.000 267.724,326.000 268.038 M154.200 362.730 C 160.751 367.249,154.986 377.634,147.996 373.904 C 143.684 371.602,143.141 365.050,147.087 362.925 C 147.809 362.536,148.400 362.079,148.400 361.909 C 148.400 361.058,152.647 361.659,154.200 362.730 M247.286 362.107 C 250.014 363.523,250.947 364.768,251.125 367.235 C 251.590 373.660,244.940 377.069,240.535 372.665 C 238.929 371.059,237.806 367.214,238.769 366.619 C 238.972 366.494,239.251 365.879,239.388 365.253 C 239.971 362.599,244.646 360.737,247.286 362.107 " stroke="none" fill="#c4e4e3" fill-rule="evenodd"></path></g></svg>